<?xml version="1.0" encoding="UTF-8"?> <svg xmlns="http://www.w3.org/2000/svg" xmlns:xlink="http://www.w3.org/1999/xlink" width="160" height="121.374" viewBox="0 0 160 121.374"><defs><linearGradient id="a" x1="1.074" y1="-0.01" x2="-0.009" y2="0.948" gradientUnits="objectBoundingBox"><stop offset="0" stop-color="#5fb3da"></stop><stop offset="1" stop-color="#5f4892"></stop></linearGradient></defs><g transform="translate(-34 17)"><rect width="160" height="121.374" transform="translate(34 -17)" fill="none"></rect><path d="M46.733,23.709a1.59,1.59,0,0,1,2.259-.249L59.6,32.1v-7.37a1.607,1.607,0,1,1,3.213,0v13.3a.414.414,0,0,1-.675.328L46.979,26A1.65,1.65,0,0,1,46.733,23.709ZM40.844,28.3,67.533,49.074a.415.415,0,0,0,.668-.334V27.776a1.607,1.607,0,1,0-3.213,0V42.308a.323.323,0,0,1-.521.261L42.8,25.711a1.591,1.591,0,0,0-2.253.3A1.649,1.649,0,0,0,40.844,28.3ZM66.832,58.426,41.066,38.3a.415.415,0,0,0-.668.334V58.939a1.607,1.607,0,1,0,3.213,0V45.07a.323.323,0,0,1,.521-.261L64.874,61.014a1.591,1.591,0,0,0,2.253-.3h0A1.649,1.649,0,0,0,66.832,58.426Zm4.935-28.865a1.619,1.619,0,0,0-1.606,1.632V53.53L37.678,28.662a1.754,1.754,0,0,0-2.812,1.424V55.1a1.607,1.607,0,1,0,3.213,0V33.056L70.562,57.924A1.753,1.753,0,0,0,73.373,56.5V31.193A1.619,1.619,0,0,0,71.767,29.561ZM60.788,60.733,46.462,49.01a.415.415,0,0,0-.675.329V61.872a1.606,1.606,0,1,0,3.212,0v-6.6l9.774,8a1.589,1.589,0,0,0,2.259-.249A1.649,1.649,0,0,0,60.788,60.733Z" transform="translate(1)" fill="url(#a)"></path><g transform="translate(83.637 19.48)"><path d="M102.444,32.521h0a9,9,0,0,0-3.216-2.566,9.832,9.832,0,0,0-4.244-.9,11.957,11.957,0,0,0-2.616.3,13.284,13.284,0,0,0-2.6.881,13.481,13.481,0,0,0-2.468,1.478,12.641,12.641,0,0,0-1.764,1.613,6.782,6.782,0,0,0-2.64-2.367.874.874,0,0,0-1.254.786V57.123a.8.8,0,0,0,.8.8h2.689a.8.8,0,0,0,.8-.8V39.148a4.49,4.49,0,0,1,.737-2.155A6.785,6.785,0,0,1,88.5,35.121a9.559,9.559,0,0,1,2.744-1.3,11.894,11.894,0,0,1,3.423-.477,5.289,5.289,0,0,1,4.656,2.093,10.685,10.685,0,0,1,1.548,6.231V57.123a.8.8,0,0,0,.8.8h2.689a.8.8,0,0,0,.8-.8V41.672a17.875,17.875,0,0,0-.7-5.161A11.931,11.931,0,0,0,102.444,32.521Z" transform="translate(-81.637 -19.48)" fill="#474a55"></path><path d="M131.675,53.87c-.906-1.022-8.019-8.977-9.535-10.673,1.3-1.425,6.6-7.239,7.137-7.832q1.913-2.12,3.988-4.443a.852.852,0,0,0-.633-1.419h-1.375a4.9,4.9,0,0,0-2.544.629,7.665,7.665,0,0,0-1.858,1.59L116.807,42.633a.925.925,0,0,0,0,1.256l10.757,11.84a8.442,8.442,0,0,0,1.886,1.565,4.848,4.848,0,0,0,2.518.629h1.272a.851.851,0,0,0,.673-1.372C133.248,55.7,132.5,54.8,131.675,53.87Z" transform="translate(-81.637 -19.48)" fill="#474a55"></path><path d="M.8,0H3.489a.8.8,0,0,1,.8.8V37.643a.8.8,0,0,1-.8.8H.8a.8.8,0,0,1-.8-.8V.8A.8.8,0,0,1,.8,0Z" transform="translate(29.286)" fill="#474a55"></path><path d="M190.012,29.609a.71.71,0,0,0-.618-.315h-1.031a3.759,3.759,0,0,0-2.044.6,3.62,3.62,0,0,0-1.4,1.622L176.3,51.182l-.293-.677-.019-.052c-.012-.036-.025-.072-.045-.123L167.732,31.5a3.073,3.073,0,0,0-1.375-1.632,4.024,4.024,0,0,0-2.071-.575h-1.024a.692.692,0,0,0-.609.309,1.01,1.01,0,0,0,.011.979L174.006,56.64l-4.419,10a.89.89,0,0,0,.814,1.25h.872a3.748,3.748,0,0,0,2.076-.612,3.357,3.357,0,0,0,1.344-1.7l15.316-35A1.015,1.015,0,0,0,190.012,29.609Z" transform="translate(-81.637 -19.48)" fill="#474a55"></path><path d="M160.06,35.671h0a14.4,14.4,0,0,0-7.275-5.761,14.552,14.552,0,0,0-10.5.325,14.819,14.819,0,0,0-7.821,7.781,14.144,14.144,0,0,0-1.165,5.7,14.387,14.387,0,0,0,.528,3.883,14.666,14.666,0,0,0,1.487,3.5,14.968,14.968,0,0,0,2.3,2.959,14.557,14.557,0,0,0,2.961,2.285,15.018,15.018,0,0,0,3.486,1.473,14.342,14.342,0,0,0,3.9.528,12.547,12.547,0,0,0,3.005-.367,16.055,16.055,0,0,0,2.845-1,16.713,16.713,0,0,0,4.657-3.191.623.623,0,0,0-.032-.918l-.473-.4a4.412,4.412,0,0,0-.63-.454,3.077,3.077,0,0,0-.727-.309,3.877,3.877,0,0,0-1.854.007,3.076,3.076,0,0,0-.973.4,12.314,12.314,0,0,1-1.374.756,14.762,14.762,0,0,1-1.522.622,11.766,11.766,0,0,1-1.534.415,7.292,7.292,0,0,1-1.388.148,10.433,10.433,0,0,1-3.933-.738,10.065,10.065,0,0,1-5.431-5.093,9.84,9.84,0,0,1-.914-3.358h20.877a3.423,3.423,0,0,0,1.425-.3,3.517,3.517,0,0,0,1.147-.831,4.109,4.109,0,0,0,.753-1.181,3.7,3.7,0,0,0,.286-1.452,4.293,4.293,0,0,0-.147-1.04A15.517,15.517,0,0,0,160.06,35.671ZM157.7,40.548H138.089a9.756,9.756,0,0,1,.764-1.818,10.221,10.221,0,0,1,2.252-2.815,10.367,10.367,0,0,1,6.875-2.541,10.641,10.641,0,0,1,3.271.514,9.838,9.838,0,0,1,2.91,1.511,9.931,9.931,0,0,1,3.543,5.149Z" transform="translate(-81.637 -19.48)" fill="#474a55"></path></g></g></svg> 